<svg id="Layer_1" data-name="Layer 1" xmlns="http://www.w3.org/2000/svg" xmlns:xlink="http://www.w3.org/1999/xlink" viewBox="0 0 60 60"><defs><style>.cls-1{fill:none;}.cls-2{clip-path:url(#clip-path);}.cls-3{fill:#f8991d;}.cls-4{fill:#d2d2d2;}</style><clipPath id="clip-path"><rect class="cls-1" x="7.14" y="8.68" width="45.71" height="42.65"/></clipPath></defs><title>koppelingen</title><g class="cls-2"><path class="cls-3" d="M31.27,26.93a1.27,1.27,0,0,0,0,1.81,5.31,5.31,0,0,1,0,7.51L20.4,47.11a5.31,5.31,0,0,1-7.51,0l-1.64-1.64a5.31,5.31,0,0,1,0-7.51L22.13,27.1a1.28,1.28,0,1,0-1.81-1.81L9.45,36.16a7.85,7.85,0,0,0,0,11.12l1.64,1.64a7.87,7.87,0,0,0,11.12,0L33.07,38a7.87,7.87,0,0,0,0-11.12,1.27,1.27,0,0,0-1.81,0Zm0,0"/><path class="cls-4" d="M50.48,12.65,48.85,11a7.87,7.87,0,0,0-11.12,0L26.86,21.88a7.87,7.87,0,0,0,0,11.12,1.28,1.28,0,0,0,1.81-1.81,5.31,5.31,0,0,1,0-7.51L39.54,12.82a5.31,5.31,0,0,1,7.51,0l1.64,1.64a5.31,5.31,0,0,1,0,7.51L37.81,32.83a1.28,1.28,0,0,0,.9,2.18,1.24,1.24,0,0,0,.9-.38L50.47,23.76a7.86,7.86,0,0,0,0-11.12Zm0,0"/></g></svg>